<?xml version="1.0" standalone="no"?>
<!DOCTYPE svg PUBLIC "-//W3C//DTD SVG 20010904//EN"
 "http://www.w3.org/TR/2001/REC-SVG-20010904/DTD/svg10.dtd">
<svg version="1.0" xmlns="http://www.w3.org/2000/svg"
 width="171.000000pt" height="168.000000pt" viewBox="0 0 171.000000 168.000000"
 preserveAspectRatio="xMidYMid meet">

<g transform="translate(0.000000,168.000000) scale(0.100000,-0.100000)"
fill="#000000" stroke="none">
<path d="M1035 1629 c-91 -11 -205 -43 -205 -58 0 -7 79 -91 87 -91 3 0 16 9
30 20 62 48 198 64 293 33 66 -21 158 -104 191 -171 19 -38 23 -64 23 -137 1
-115 -23 -174 -100 -244 -74 -68 -146 -94 -241 -89 -204 13 -339 190 -305 400
l9 57 -46 20 c-25 10 -49 17 -53 15 -12 -8 -10 -842 2 -849 16 -10 140 -9 150
1 5 5 11 66 12 136 2 70 7 130 11 134 4 4 35 0 69 -8 l63 -15 -2 -49 c-4 -69
-47 -183 -103 -267 -42 -64 -178 -207 -198 -207 -7 0 -38 56 -149 272 l-65
128 17 57 c9 32 21 69 25 83 39 116 90 427 90 547 l0 62 -76 36 -77 35 -216
-2 -216 -3 0 -75 0 -75 197 -5 c108 -3 200 -8 204 -12 19 -19 -44 -408 -66
-408 -4 0 -38 61 -76 135 -96 187 -82 175 -154 140 -33 -17 -62 -37 -65 -46
-3 -9 44 -117 106 -244 l112 -227 -20 -49 c-36 -84 -141 -250 -218 -346 -41
-51 -75 -95 -75 -98 0 -17 97 -135 111 -135 33 0 167 167 254 317 26 46 51 80
56 77 5 -3 36 -60 70 -127 48 -97 59 -128 54 -153 -5 -27 2 -40 40 -88 25 -31
54 -56 64 -56 21 0 117 57 189 112 74 57 195 189 234 254 18 30 36 54 39 54 4
0 9 -55 11 -123 4 -144 19 -185 82 -225 37 -24 52 -27 161 -30 70 -2 138 1
162 7 87 24 136 121 148 292 l7 106 -67 28 c-93 40 -98 35 -106 -96 -3 -57
-11 -118 -18 -136 -11 -29 -17 -32 -71 -38 -78 -9 -114 0 -129 31 -7 16 -11
99 -11 234 0 197 -1 210 -19 220 -11 5 -29 10 -40 10 -17 0 -21 6 -21 34 0 19
5 38 11 41 11 8 136 35 156 35 10 0 13 -30 13 -119 0 -90 3 -121 14 -130 9 -7
41 -11 83 -9 l68 3 3 501 2 502 -37 5 c-21 2 -65 14 -98 27 -63 24 -216 51
-275 49 -19 -1 -66 -5 -105 -10z"/>
<path d="M1053 1420 c-24 -11 -43 -23 -43 -28 0 -4 20 -27 43 -50 36 -36 48
-42 70 -37 33 9 93 -20 101 -48 12 -44 5 -69 -23 -98 -58 -57 -129 -25 -143
66 -3 20 -105 78 -120 68 -5 -2 -8 -32 -8 -67 0 -81 29 -138 94 -185 44 -31
54 -34 120 -34 60 0 78 4 114 27 24 15 56 48 72 73 25 40 30 57 30 113 0 56
-5 73 -29 112 -63 99 -174 134 -278 88z"/>
</g>
</svg>
