<svg width="1000" height="300" viewBox="0 0 1000 300" fill="none" xmlns="http://www.w3.org/2000/svg">
    <g id="Frame 1">
        <!-- <rect width="1000" height="300" fill="transparent" /> -->
        <g id="name">
            <path d="M450.3 176C445.7 178.4 440.9 180.133 435.9 181.2C430.9 182.267 425.8 182.8 420.6 182.8C415.067 182.8 409.967 181.933 405.3 180.2C400.633 178.467 396.6 176 393.2 172.8C389.8 169.533 387.133 165.6 385.2 161C383.333 156.4 382.4 151.267 382.4 145.6C382.4 139.933 383.333 134.8 385.2 130.2C387.133 125.6 389.8 121.7 393.2 118.5C396.6 115.233 400.633 112.733 405.3 111C409.967 109.267 415.067 108.4 420.6 108.4C426.267 108.4 431.467 109.1 436.2 110.5C441 111.833 445.2 114.167 448.8 117.5L437.8 129.5C435.667 127.3 433.267 125.633 430.6 124.5C427.933 123.367 424.6 122.8 420.6 122.8C417.267 122.8 414.233 123.367 411.5 124.5C408.833 125.633 406.533 127.233 404.6 129.3C402.667 131.3 401.167 133.7 400.1 136.5C399.1 139.3 398.6 142.333 398.6 145.6C398.6 148.933 399.1 152 400.1 154.8C401.167 157.533 402.667 159.933 404.6 162C406.533 164 408.833 165.567 411.5 166.7C414.233 167.833 417.267 168.4 420.6 168.4C424 168.4 426.933 168.033 429.4 167.3C431.867 166.5 433.833 165.7 435.3 164.9V153.4H422.6V139H450.3V176Z" fill="url(#paint0_linear_0_1)" />
            <path d="M462.132 132.4H477.132V140.2H477.332C478.932 137.2 480.832 134.967 483.032 133.5C485.232 131.967 487.999 131.2 491.332 131.2C492.199 131.2 493.065 131.233 493.932 131.3C494.799 131.367 495.599 131.5 496.332 131.7V145.4C495.265 145.067 494.199 144.833 493.132 144.7C492.132 144.5 491.065 144.4 489.932 144.4C487.065 144.4 484.799 144.8 483.132 145.6C481.465 146.4 480.165 147.533 479.232 149C478.365 150.4 477.799 152.1 477.532 154.1C477.265 156.1 477.132 158.3 477.132 160.7V181H462.132V132.4Z" fill="url(#paint1_linear_0_1)" />
            <path d="M533.355 174.9H533.155C531.488 177.5 529.255 179.367 526.455 180.5C523.721 181.633 520.821 182.2 517.755 182.2C515.488 182.2 513.288 181.867 511.155 181.2C509.088 180.6 507.255 179.667 505.655 178.4C504.055 177.133 502.788 175.567 501.855 173.7C500.921 171.833 500.455 169.667 500.455 167.2C500.455 164.4 500.955 162.033 501.955 160.1C503.021 158.167 504.421 156.567 506.155 155.3C507.955 154.033 509.988 153.067 512.255 152.4C514.521 151.667 516.855 151.133 519.255 150.8C521.721 150.467 524.155 150.267 526.555 150.2C529.021 150.133 531.288 150.1 533.355 150.1C533.355 147.433 532.388 145.333 530.455 143.8C528.588 142.2 526.355 141.4 523.755 141.4C521.288 141.4 519.021 141.933 516.955 143C514.955 144 513.155 145.4 511.555 147.2L503.555 139C506.355 136.4 509.621 134.467 513.355 133.2C517.088 131.867 520.955 131.2 524.955 131.2C529.355 131.2 532.955 131.767 535.755 132.9C538.621 133.967 540.888 135.567 542.555 137.7C544.288 139.833 545.488 142.467 546.155 145.6C546.821 148.667 547.155 152.233 547.155 156.3V181H533.355V174.9ZM529.655 159.7C528.521 159.7 527.088 159.767 525.355 159.9C523.688 159.967 522.055 160.233 520.455 160.7C518.921 161.167 517.588 161.867 516.455 162.8C515.388 163.733 514.855 165.033 514.855 166.7C514.855 168.5 515.621 169.833 517.155 170.7C518.688 171.567 520.288 172 521.955 172C523.421 172 524.821 171.8 526.155 171.4C527.555 171 528.788 170.433 529.855 169.7C530.921 168.967 531.755 168.033 532.355 166.9C533.021 165.767 533.355 164.433 533.355 162.9V159.7H529.655Z" fill="url(#paint2_linear_0_1)" />
            <path d="M584.566 188.9C583.566 191.5 582.599 193.8 581.666 195.8C580.732 197.8 579.532 199.467 578.066 200.8C576.666 202.2 574.866 203.233 572.666 203.9C570.466 204.633 567.566 205 563.966 205C560.099 205 556.366 204.4 552.766 203.2L554.766 190.9C557.032 191.9 559.366 192.4 561.766 192.4C563.432 192.4 564.799 192.2 565.866 191.8C566.932 191.467 567.799 190.933 568.466 190.2C569.199 189.533 569.799 188.7 570.266 187.7C570.732 186.7 571.232 185.533 571.766 184.2L572.866 181.4L551.566 132.4H567.766L580.266 164.5H580.466L591.166 132.4H606.566L584.566 188.9Z" fill="url(#paint3_linear_0_1)" />
            <path d="M639.632 146.7C637.432 143.967 634.532 142.6 630.932 142.6C629.665 142.6 628.432 142.9 627.232 143.5C626.032 144.1 625.432 145.133 625.432 146.6C625.432 147.8 626.032 148.7 627.232 149.3C628.499 149.833 630.065 150.333 631.932 150.8C633.865 151.2 635.899 151.667 638.032 152.2C640.232 152.667 642.265 153.433 644.132 154.5C646.065 155.567 647.632 157.033 648.832 158.9C650.099 160.7 650.732 163.133 650.732 166.2C650.732 169.333 650.032 171.933 648.632 174C647.299 176 645.565 177.633 643.432 178.9C641.299 180.1 638.899 180.933 636.232 181.4C633.565 181.933 630.932 182.2 628.332 182.2C624.932 182.2 621.499 181.733 618.032 180.8C614.565 179.8 611.632 178.067 609.232 175.6L618.332 165.5C619.732 167.233 621.265 168.567 622.932 169.5C624.665 170.367 626.665 170.8 628.932 170.8C630.665 170.8 632.232 170.567 633.632 170.1C635.032 169.567 635.732 168.633 635.732 167.3C635.732 166.033 635.099 165.1 633.832 164.5C632.632 163.833 631.065 163.3 629.132 162.9C627.265 162.433 625.232 161.967 623.032 161.5C620.899 160.967 618.865 160.2 616.932 159.2C615.065 158.2 613.499 156.8 612.232 155C611.032 153.133 610.432 150.667 610.432 147.6C610.432 144.733 610.999 142.267 612.132 140.2C613.332 138.133 614.865 136.433 616.732 135.1C618.665 133.767 620.865 132.8 623.332 132.2C625.799 131.533 628.299 131.2 630.832 131.2C634.032 131.2 637.265 131.667 640.532 132.6C643.799 133.533 646.565 135.2 648.832 137.6L639.632 146.7Z" fill="url(#paint4_linear_0_1)" />
            <path d="M656.621 156.7C656.621 152.833 657.321 149.333 658.721 146.2C660.121 143.067 662.021 140.4 664.421 138.2C666.888 135.933 669.754 134.2 673.021 133C676.354 131.8 679.888 131.2 683.621 131.2C687.354 131.2 690.854 131.8 694.121 133C697.454 134.2 700.321 135.933 702.721 138.2C705.188 140.4 707.121 143.067 708.521 146.2C709.921 149.333 710.621 152.833 710.621 156.7C710.621 160.567 709.921 164.067 708.521 167.2C707.121 170.333 705.188 173.033 702.721 175.3C700.321 177.5 697.454 179.2 694.121 180.4C690.854 181.6 687.354 182.2 683.621 182.2C679.888 182.2 676.354 181.6 673.021 180.4C669.754 179.2 666.888 177.5 664.421 175.3C662.021 173.033 660.121 170.333 658.721 167.2C657.321 164.067 656.621 160.567 656.621 156.7ZM671.621 156.7C671.621 160.367 672.654 163.333 674.721 165.6C676.854 167.867 679.821 169 683.621 169C687.421 169 690.354 167.867 692.421 165.6C694.554 163.333 695.621 160.367 695.621 156.7C695.621 153.033 694.554 150.067 692.421 147.8C690.354 145.533 687.421 144.4 683.621 144.4C679.821 144.4 676.854 145.533 674.721 147.8C672.654 150.067 671.621 153.033 671.621 156.7Z" fill="url(#paint5_linear_0_1)" />
            <path d="M719.456 132.4H733.856V139H734.056C734.523 138.067 735.19 137.133 736.056 136.2C736.923 135.267 737.956 134.433 739.156 133.7C740.356 132.967 741.723 132.367 743.256 131.9C744.79 131.433 746.456 131.2 748.256 131.2C752.056 131.2 755.123 131.8 757.456 133C759.79 134.133 761.59 135.733 762.856 137.8C764.19 139.867 765.09 142.3 765.556 145.1C766.023 147.9 766.256 150.933 766.256 154.2V181H751.256V157.2C751.256 155.8 751.19 154.367 751.056 152.9C750.99 151.367 750.69 149.967 750.156 148.7C749.69 147.433 748.923 146.4 747.856 145.6C746.856 144.8 745.39 144.4 743.456 144.4C741.523 144.4 739.956 144.767 738.756 145.5C737.556 146.167 736.623 147.1 735.956 148.3C735.356 149.433 734.956 150.733 734.756 152.2C734.556 153.667 734.456 155.2 734.456 156.8V181H719.456V132.4Z" fill="url(#paint6_linear_0_1)" />
            <path d="M800.968 110.2H817.968L829.268 155.6H829.468L837.5 133H852L862.2 156.8H862.4L874.3 110.2H890.1L869.4 181H855.5L845.2 147H845L835.368 181H821.968L800.968 110.2Z" fill="url(#paint7_linear_0_1)" />
            <path d="M937.11 181.6H922.71V175H922.51C921.977 175.933 921.277 176.867 920.41 177.8C919.61 178.733 918.61 179.567 917.41 180.3C916.21 181.033 914.843 181.633 913.31 182.1C911.777 182.567 910.11 182.8 908.31 182.8C904.51 182.8 901.41 182.233 899.01 181.1C896.677 179.9 894.843 178.267 893.51 176.2C892.243 174.133 891.377 171.7 890.91 168.9C890.51 166.1 890.31 163.067 890.31 159.8V133H905.31V156.8C905.31 158.2 905.343 159.667 905.41 161.2C905.543 162.667 905.843 164.033 906.31 165.3C906.843 166.567 907.61 167.6 908.61 168.4C909.677 169.2 911.177 169.6 913.11 169.6C915.043 169.6 916.61 169.267 917.81 168.6C919.01 167.867 919.91 166.933 920.51 165.8C921.177 164.6 921.61 163.267 921.81 161.8C922.01 160.333 922.11 158.8 922.11 157.2V133H937.11V181.6Z" fill="url(#paint8_linear_0_1)" />
        </g>
        <path id="C2" d="M357 81C357 98.9911 353.456 116.806 346.571 133.428C339.687 150.049 329.595 165.152 316.874 177.874C304.152 190.595 289.049 200.687 272.428 207.571C255.806 214.456 237.991 218 220 218L220 81H357Z"/>
        <path id="C1" d="M196 81C196 98.9911 192.456 116.806 185.571 133.428C178.687 150.049 168.595 165.152 155.874 177.874C143.152 190.595 128.049 200.687 111.428 207.571C94.806 214.456 76.9911 218 59 218L59 135.8C66.1964 135.8 73.3224 134.383 79.9711 131.629C86.6197 128.875 92.6608 124.838 97.7495 119.749C102.838 114.661 106.875 108.62 109.629 101.971C112.383 95.3224 113.8 88.1964 113.8 81H196Z"/>
    </g>

    <defs>
        <linearGradient id="paint0_linear_0_1" x1="379" y1="149.5" x2="957" y2="149.5" gradientUnits="userSpaceOnUse">
            <stop stop-color="#C27BA0" />
            <stop offset="1" stop-color="#8E7CC3" />
        </linearGradient>
        <linearGradient id="paint1_linear_0_1" x1="379" y1="149.5" x2="957" y2="149.5" gradientUnits="userSpaceOnUse">
            <stop stop-color="#C27BA0" />
            <stop offset="1" stop-color="#8E7CC3" />
        </linearGradient>
        <linearGradient id="paint2_linear_0_1" x1="379" y1="149.5" x2="957" y2="149.5" gradientUnits="userSpaceOnUse">
            <stop stop-color="#C27BA0" />
            <stop offset="1" stop-color="#8E7CC3" />
        </linearGradient>
        <linearGradient id="paint3_linear_0_1" x1="379" y1="149.5" x2="957" y2="149.5" gradientUnits="userSpaceOnUse">
            <stop stop-color="#C27BA0" />
            <stop offset="1" stop-color="#8E7CC3" />
        </linearGradient>
        <linearGradient id="paint4_linear_0_1" x1="379" y1="149.5" x2="957" y2="149.5" gradientUnits="userSpaceOnUse">
            <stop stop-color="#C27BA0" />
            <stop offset="1" stop-color="#8E7CC3" />
        </linearGradient>
        <linearGradient id="paint5_linear_0_1" x1="379" y1="149.5" x2="957" y2="149.5" gradientUnits="userSpaceOnUse">
            <stop stop-color="#C27BA0" />
            <stop offset="1" stop-color="#8E7CC3" />
        </linearGradient>
        <linearGradient id="paint6_linear_0_1" x1="379" y1="149.5" x2="957" y2="149.5" gradientUnits="userSpaceOnUse">
            <stop stop-color="#C27BA0" />
            <stop offset="1" stop-color="#8E7CC3" />
        </linearGradient>
        <linearGradient id="paint7_linear_0_1" x1="379" y1="149.5" x2="957" y2="149.5" gradientUnits="userSpaceOnUse">
            <stop stop-color="#C27BA0" />
            <stop offset="1" stop-color="#8E7CC3" />
        </linearGradient>
        <linearGradient id="paint8_linear_0_1" x1="379" y1="149.5" x2="957" y2="149.5" gradientUnits="userSpaceOnUse">
            <stop stop-color="#C27BA0" />
            <stop offset="1" stop-color="#8E7CC3" />
        </linearGradient>
    </defs>

    <style>
    @keyframes animate-svg-fill {
        0% {fill-opacity: 0;}
        100% {fill-opacity: 1;}
    }
    @keyframes animate-svg-stroke {
        0%   { stroke-dashoffset: 200; stroke-dasharray: 200;}
        100% { stroke-dashoffset: 0; stroke-dasharray: 200;}
    }
    @keyframes animate-svg-stroke-300 {
        0%   { stroke-dashoffset: 300; stroke-dasharray: 300;}
        100% { stroke-dashoffset: 0; stroke-dasharray: 300;}
    }
    @keyframes animate-svg-stroke-400 {
        0%   { stroke-dashoffset: 400; stroke-dasharray: 400;}
        100% { stroke-dashoffset: 0; stroke-dasharray: 400;}
    }
    @keyframes animate-svg-stroke-500 {
        0%   { stroke-dashoffset: 500; stroke-dasharray: 500;}
        100% { stroke-dashoffset: 0; stroke-dasharray: 500;}
    }
    @keyframes animate-svg-stroke-fade {
        0% {stroke: #FFFFFF;}
        100% {stroke: transparent;}
    }
    

    #name{
        stroke: #FFFFFF;
    }
    #C1{
        fill: #C27BA0;
        stroke: #FFFFFF;
    }
    #C2{
        fill: #8E7CC3;
        stroke: #FFFFFF;
    }

    #C1 {
        animation:
        animate-svg-fill 0.7s cubic-bezier(0.47, 0, 0.745, 0.715) 1.1s both,
        animate-svg-stroke-500 1.5s cubic-bezier(0.47, 0, 0.745, 0.715) 0.2s both,
        animate-svg-stroke-fade 0.5s cubic-bezier(0.47, 0, 0.745, 0.715) 1.8s both;
    }
    #C2 {
        animation:
        animate-svg-fill 0.7s cubic-bezier(0.47, 0, 0.745, 0.715) 1.3s both,
        animate-svg-stroke-500 1.5s cubic-bezier(0.47, 0, 0.745, 0.715) 0.4s both,
        animate-svg-stroke-fade 0.5s cubic-bezier(0.47, 0, 0.745, 0.715) 2.0s both;
    }

    #name > path:nth-child(1) {<!-- G -->
        animation:
        animate-svg-fill 0.7s cubic-bezier(0.47, 0, 0.745, 0.715) 1.1s both,
        animate-svg-stroke-500 1.5s cubic-bezier(0.47, 0, 0.745, 0.715) 0.2s both,
        animate-svg-stroke-fade 0.5s cubic-bezier(0.47, 0, 0.745, 0.715) 1.8s both;
    }
    #name > path:nth-child(2) {<!-- r -->
        animation:
        animate-svg-fill 0.7s cubic-bezier(0.47, 0, 0.745, 0.715) 1.4s both,
        animate-svg-stroke 1.5s cubic-bezier(0.47, 0, 0.745, 0.715) 0.5s both,
        animate-svg-stroke-fade 0.5s cubic-bezier(0.47, 0, 0.745, 0.715) 2.1s both;
    }
    #name > path:nth-child(3) {<!-- a -->
        animation:
        animate-svg-fill 0.7s cubic-bezier(0.47, 0, 0.745, 0.715) 1.7s both,
        animate-svg-stroke-300 1.5s cubic-bezier(0.47, 0, 0.745, 0.715) 0.7s both,
        animate-svg-stroke-fade 0.5s cubic-bezier(0.47, 0, 0.745, 0.715) 2.4s both;
    }
    #name > path:nth-child(4) {<!-- y -->
        animation:
        animate-svg-fill 0.7s cubic-bezier(0.47, 0, 0.745, 0.715) 1.8s both,
        animate-svg-stroke-300 1.5s cubic-bezier(0.47, 0, 0.745, 0.715) 0.9s both,
        animate-svg-stroke-fade 0.5s cubic-bezier(0.47, 0, 0.745, 0.715) 2.5s both;
    }
    #name > path:nth-child(5) {<!-- s -->
        animation:
        animate-svg-fill 0.7s cubic-bezier(0.47, 0, 0.745, 0.715) 2.0s both,
        animate-svg-stroke-300 1.5s cubic-bezier(0.47, 0, 0.745, 0.715) 1.1s both,
        animate-svg-stroke-fade 0.5s cubic-bezier(0.47, 0, 0.745, 0.715) 2.7s both;
    }
    #name > path:nth-child(6) {<!-- o -->
        animation:
        animate-svg-fill 0.7s cubic-bezier(0.47, 0, 0.745, 0.715) 2.2s both,
        animate-svg-stroke 1.5s cubic-bezier(0.47, 0, 0.745, 0.715) 1.3s both,
        animate-svg-stroke-fade 0.5s cubic-bezier(0.47, 0, 0.745, 0.715) 2.9s both;
    }
    #name > path:nth-child(7) {<!-- n -->
        animation:
        animate-svg-fill 0.7s cubic-bezier(0.47, 0, 0.745, 0.715) 2.4s both,
        animate-svg-stroke-300 1.5s cubic-bezier(0.47, 0, 0.745, 0.715) 1.5s both,
        animate-svg-stroke-fade 0.5s cubic-bezier(0.47, 0, 0.745, 0.715) 3.1s both;
    }
    #name > path:nth-child(8) {<!-- W -->
        animation:
        animate-svg-fill 0.7s cubic-bezier(0.47, 0, 0.745, 0.715) 2.6s both,
        animate-svg-stroke-500 1.5s cubic-bezier(0.47, 0, 0.745, 0.715) 1.7s both,
        animate-svg-stroke-fade 0.5s cubic-bezier(0.47, 0, 0.745, 0.715) 3.3s both;
    }
    #name > path:nth-child(9) {<!-- u -->
        animation:
        animate-svg-fill 0.7s cubic-bezier(0.47, 0, 0.745, 0.715) 2.9s both,
        animate-svg-stroke-300 1.5s cubic-bezier(0.47, 0, 0.745, 0.715) 2.0s both,
        animate-svg-stroke-fade 0.5s cubic-bezier(0.47, 0, 0.745, 0.715) 3.6s both;
    }
</style>

</svg>