<svg width="457" height="308" viewBox="0 0 457 308" fill="none" xmlns="http://www.w3.org/2000/svg">
<path d="M48 34.5C43.6 29.7 35.1667 22.1667 31.5 19C31.1667 31 30.5 57.5 30.5 67.5C30.5 77.5 32.1667 83.3333 33 85C28.6667 92.1667 19.2 108.2 16 115C12 123.5 2.5 155 2.5 170.5C2.5 186 5.5 195.5 9 202.5C11.8 208.1 17.5 214.167 20 216.5V219C18 221 13.3 225.6 10.5 228C7 231 0 238 0 248C0 258 2.5 261.5 9 268.5C15.5 275.5 27 278.5 42 278.5C54 278.5 67 274.833 72 273C75 273.833 84.5 275.5 98.5 275.5C116 275.5 129.5 269 135.5 269C141.5 269 145 272.5 149 274.5C153 276.5 163.5 280 183.5 280C203.5 280 215 279 223.5 274.5C230.3 270.9 236.333 266.333 238.5 264.5C240.833 266 246.7 270.1 251.5 274.5C257.5 280 280.5 290 292.5 295.5C304.5 301 326.5 308 355.5 308C384.5 308 408 298 425.5 287C443 276 452.5 254.5 455.5 243.5C458.5 232.5 456 206.5 451.5 196.5C447.9 188.5 441.333 181.833 438.5 179.5C437.833 177.5 433.9 168.1 423.5 146.5C410.5 119.5 362 91 345.5 81.5C332.3 73.9 292.333 66.3333 274 63.5C265.333 55.3333 245.2 37.1 234 29.5C220.17 20.1154 173.649 6.82748 162.399 3.61398L162 3.5C151.5 0.500001 123.5 -0.999999 114.5 1C105.5 3 93 12 82.5 20C72 28 66 41.5 64 45.5C62.4 48.7 60 47.8333 59 47C57.1667 44.8333 52.4 39.3 48 34.5Z" fill="#37098F"/>
<path d="M35.5 80L38.5 85.5C35.3333 91.6667 28.1 105.7 24.5 112.5C20 121 13.5 146 11.5 156C9.50001 166 9.50001 179 11 187.5C12.5 196 25 209.5 36.5 217C45.7 223 61.3333 227.5 68 229H106H144.5C153.5 229 172.5 220.5 180.5 216C188.5 211.5 200.5 200 202.5 193.5C204.5 187 203 148 201.5 142C200 136 193 115.5 189.5 107C186.7 100.2 181 91.1667 178.5 87.5V81L181.5 76V42.5L180 31C174.5 36.8333 162.4 49.7 158 54.5C153.6 59.3 148.167 68.5 146 72.5H105.5C91 72.5 77.5 74.5 75 74C72.5 73.5 69.5 71.5 68 68C66.5 64.5 58 55 55 50.5C52.6 46.9 43 36.3333 38.5 31.5H35L35.5 80Z" fill="#FCDE4C"/>
<path d="M61.5 235.5C53.9 234.3 41.3333 228.667 36 226C32.6667 227.5 25.3 231 22.5 233C19 235.5 11 243.5 11 247.5C11 251.5 14 256.5 16.5 260C19 263.5 24.5 268 28 269C31.5 270 53.5 269 55 269C56.5 269 57 269 58 267.5C58.8 266.3 57.3333 265.333 56.5 265L51 258.5C50.6667 258 50.2 256.8 51 256C51.8 255.2 53 255.667 53.5 256C56.1667 257.833 62.6 261.9 67 263.5C72.5 265.5 82.5 267 95 267C107.5 267 117 265.5 121.5 265C126 264.5 128 262 128 259C128 256.6 125 254 123.5 253V239L121.5 238C115.167 238.333 100.8 239 94 239C85.5 239 71 237 61.5 235.5Z" fill="#FCDE4C"/>
<path d="M88 24C82 28.4 75.8333 38.1667 73.5 42.5C74.8333 42.5 79.2 42.1 86 40.5C94.5 38.5 104 38.5 118 38.5C132 38.5 146 39.5 149 40.5C152 41.5 157 43 159.5 43C161.5 43 163 41.3333 163.5 40.5L184 21.5L186.5 61C188.5 62 193.3 64.7 196.5 67.5C200.5 71 205 78 207.5 81.5C210 85 211 88.5 212.5 92.5C214 96.5 215 98 217 99.5C219 101 223.5 99.5 226.5 99.5C229.5 99.5 242 100.5 251.5 101C261 101.5 276 108 279 110C282 112 285 112.5 287 111C289 109.5 288.5 108 288 105.5C287.5 103 280.5 88 276 80.5C271.5 73 251.5 56 242 48.5C232.5 41 201 24 185.5 18C170 12 141 9 133 9C125 9 117.5 8.5 111 10C104.5 11.5 95.5 18.5 88 24Z" fill="#4F57FA"/>
<path d="M442.5 214.5C442.9 210.5 440.667 207.167 439.5 206C439.5 208.333 439 214.6 437 221C434.5 229 423 241 413.5 248.5C404 256 382 261.5 375.5 263.5C369 265.5 353 265 343 264.5C333 264 309.5 256.5 299 251.5C288.5 246.5 266 229 259.5 223C253 217 246.5 206 242 203C237.5 200 232.5 201.5 227 204.5C221.5 207.5 220.5 215.5 222 220C223.5 224.5 228 230 234 238C240 246 265 265.5 274 271.5C283 277.5 312.5 289.5 325 292.5C337.5 295.5 354.5 297.5 369.5 297.5C384.5 297.5 411 282 418.5 276.5C426 271 441.5 248.5 442.5 243C443.5 237.5 442 219.5 442.5 214.5Z" fill="#FCDE4C"/>
<path d="M78.5 48C70.9 50 65.3333 51.8333 63.5 52.5C64.5 53.6667 67 56.7 69 59.5C71 62.3 72.8333 66.6667 73.5 68.5H80.5L83.5 66.5H132L135.5 68.5H144.5L145.5 63.5C146.667 61.5 149.4 57 151 55C153 52.5 155 50.5 154 49C153 47.5 151 47 145.5 46C140 45 130 44.5 117.5 44.5C105 44.5 88 45.5 78.5 48Z" fill="white"/>
<path d="M200.5 84C197.3 78 189.833 69.8333 186.5 66.5C186.333 70.1667 186 77.8 186 79C186 80.5 184.5 80 183.5 81.5C182.5 83 183 85 183.5 86.5C184 88 194 102.5 196.5 107C199 111.5 200.5 120 202 122C203.5 124 205 123 206 122C207 121 209.5 113 210 111C210.5 109 210 102 209.5 100C209 98 204.5 91.5 200.5 84Z" fill="white"/>
<path d="M31.5 134C27 137 21.5 142.5 18.5 147C18.1667 148 17.6 150.6 18 153C18.5 156 18.5 159 19.5 163.5C20.5 168 26.5 179 30.5 183C34.5 187 43 192 51.5 192C60 192 67 188.5 73.5 184.5C80 180.5 87 176.5 87 167.5C87 158.5 75 141.5 70 136.5C65 131.5 57 129 50 128.5C43 128 36 131 31.5 134Z" fill="#37098F"/>
<path d="M139.5 139.5C134 144 127 155 124.5 162C124.167 164 123.7 168.8 124.5 172C125.5 176 127.5 179 135 185.5C142.5 192 148 193 162.5 193.5C177 194 185.5 185 190 177C194.5 169 196 156.5 196 153.5C196 150.5 194 147 188 139.5C182 132 171.5 129.5 162.5 129.5C153.5 129.5 145 135 139.5 139.5Z" fill="#37098F"/>
<path d="M95.5 199L99.5 203.5V209L92 215.5C91.6667 216 91.3 217.2 92.5 218C93.7 218.8 95 219 95.5 219L102.5 212L105 212.5L113 219C113.833 219.167 115.9 219.4 117.5 219C119.1 218.6 119.5 217.5 119.5 217L106.5 208V204.5L114 199V193.5L110.5 190H99L95.5 193.5V199Z" fill="#37098F"/>
<path d="M32.5 139C30.1 140.6 24.8333 146.333 22.5 149C22.5 151.833 22.7 158.4 23.5 162C24.5 166.5 29.5 175.5 34.5 180C39.5 184.5 45.5 188.5 51.5 188.5C57.5 188.5 66 185 69.5 183C73 181 81.5 173.5 82.5 172C83.5 170.5 83 166.5 82.5 163.5C82 160.5 78 154 73 146.5C68 139 57.5 133 48.5 133C39.5 133 35.5 137 32.5 139Z" fill="white"/>
<path d="M138 147C134 151.5 129.5 162 129 171C130 172.833 132.6 177 135 179C138 181.5 141 184.5 146.5 188C152 191.5 165.5 190.5 173 188C180.5 185.5 185.5 177.5 187 172.5C188.5 167.5 192 158.5 191 154C190 149.5 185.5 142.5 181.5 139C177.5 135.5 166.5 132.5 159 133.5C151.5 134.5 142 142.5 138 147Z" fill="white"/>
<path d="M110.5 194.5H99.5V197.5L101.5 199.5H106L110.5 196.5V194.5Z" fill="white"/>
<path d="M48 152.5C47.2 156.1 47.6667 175.333 48 184.5L50.5 185L53 184.5C53.1667 175.667 53.5 157.3 53.5 154.5C53.5 151 56 145 56 142.5C56 140 53.5 140.5 52 141.5C50.5 142.5 49 148 48 152.5Z" fill="#37098F"/>
<path d="M163.5 143.5C163 141.5 160.5 141.5 160 143.5V178.5C160 180.5 158 181.5 158 183.5C158 185.5 158 187 161 187C164 187 164.5 184.5 165.5 181.5C166.5 178.5 165.5 154.5 165.5 152.5C165.5 150.5 164 145.5 163.5 143.5Z" fill="#37098F"/>
<path d="M348.5 102.5C332.9 92.9 304 85.8333 291.5 83.5V87C292.5 88.1667 295 91.7 297 96.5C299 101.3 300.167 106.833 300.5 109C304 109.833 312 112.5 316 116.5C321 121.5 320.5 135 316 142C311.5 149 291.5 152.5 284.5 149.5C277.5 146.5 273.5 137 273 132.5C272.6 128.9 273.833 123.667 274.5 121.5C274 120.833 272.4 118.9 270 116.5C267 113.5 259.5 112 248.5 110C239.7 108.4 223.5 108.667 216.5 109C215.667 113 213.7 121.6 212.5 124C211 127 207 131.5 207 134.5C207 137.5 209 140 210.5 146C212 152 214 164 214 177C214 190 208.5 201 202 210C195.5 219 185 223.5 174.5 229C164 234.5 153.5 236 149 236C144.5 236 141 237 137 239C133 241 133 246 134.5 249.5C136 253 140 258.5 147.5 263C155 267.5 167 269.5 176 269.5C185 269.5 198 269 206 267.5C214 266 222.5 260.5 225.5 257C228.5 253.5 226.5 249 224.5 247C222.5 245 216 236 213 227C210 218 211.5 206.5 217 200C222.5 193.5 228.5 192 233.5 192C238.5 192 241 191.5 246.5 195C252 198.5 252 200 258 208C264 216 279.5 228.5 294 237.5C308.5 246.5 320 252 336 252C352 252 371 250.5 385.5 246.5C400 242.5 416.5 232.5 421 227C425.5 221.5 427.5 205.5 424 192C420.5 178.5 406 154 397.5 142.5C389 131 368 114.5 348.5 102.5Z" fill="#FCDE4C"/>
<path d="M320 127.5C320.4 131.9 318.167 138 317 140.5C320.667 141.167 328.5 142.8 330.5 144C333 145.5 333.5 150 335 151.5C336.5 153 344.5 158.5 346.5 161.5C348.5 164.5 356.5 168 359 168.5C361.5 169 366.5 165.5 368 162C369.5 158.5 368 148 366.5 145C365 142 355.5 133.5 353 131.5C350.5 129.5 350.5 126.5 347.5 123.5C344.5 120.5 339 120.5 336 119.5C333 118.5 325 113 320 111C316 109.4 311.333 111 309.5 112C309.833 112 311.2 112.5 314 114.5C317.5 117 319.5 122 320 127.5Z" fill="#FEF188"/>
<path d="M375 174C370 174.5 365 178.5 365 183.5C365.167 185.167 366 189.1 368 191.5C370.5 194.5 373.5 196 377 196C380.5 196 383 195.5 385 192C387 188.5 386 184 385 180C384 176 380 173.5 375 174Z" fill="#FEF188"/>
<path d="M35 80L35.5 35L40 41L45 52L53 69L47 74.5L44 80L42 83L39 80L37 83L35 80Z" fill="#F6A820"/>
<path d="M182 43L180.5 37L163.5 70L169.5 73.5L175.5 79H179.5L182 76V43Z" fill="#F6A820"/>
<path d="M81.5 88C83 82.5 77 80.5 73 84C69.5 90.6667 62.4 104.8 62 108C61.5 112 63 114 65.5 115C68 116 70.5 115.5 73 112.5C75.5 109.5 80 93.5 81.5 88Z" fill="#F6A820"/>
<path d="M108 88C107.5 83.5 100 84 100 88V110C100 114.5 109 113.5 109 110C109 106.5 108.5 92.5 108 88Z" fill="#F6A820"/>
<path d="M131 85.5C129 88.5 129.5 90.5 132 93.5C133.167 95.1667 135.9 99.3 137.5 102.5C139.5 106.5 141.5 112 142.5 114.5C143.5 117 147 117.5 150 118C153 118.5 153 114.5 152 109C151 103.5 144 92.5 141.5 89C139 85.5 133 82.5 131 85.5Z" fill="#F6A820"/>
<path d="M286 243.5L277.5 239V243.5C277.5 245.5 274.5 248 274.5 250C274.5 252 276.5 254 279 255C281.5 256 284 254 285.5 251.5C286.7 249.5 286.333 245.333 286 243.5Z" fill="#F6A820"/>
<path d="M313 258L304 253C303.167 254.333 301.4 257.5 301 259.5C300.5 262 300.5 265.5 303 267.5C305.5 269.5 308.5 267 311 264.5C313 262.5 313.167 259.333 313 258Z" fill="#F6A820"/>
<path d="M353 264.5H338.5C339.333 268.167 341.2 276.1 342 278.5C343 281.5 346.5 282.5 348.5 282.5C350.5 282.5 354 282 354.5 278.5C354.9 275.7 353.667 268 353 264.5Z" fill="#F6A820"/>
<path d="M375.5 263.5L369.5 264.5C370.333 266.333 372.3 270.7 373.5 273.5C375 277 378.5 280.5 382 280.5C385.5 280.5 385.5 276 386.5 273.5C387.5 271 385 268 384 266C383.2 264.4 383.667 262 384 261L375.5 263.5Z" fill="#F6A820"/>
<path d="M416.5 246.5L406 253C408.333 255 413.7 259.4 416.5 261C420 263 422 262 424 260C426 258 426 255 425 252C424.2 249.6 419 247.333 416.5 246.5Z" fill="#F6A820"/>
<path d="M308.5 131C308 135.5 303.5 138.5 295.5 138.5C293.667 138.5 289.6 138.4 288 138C286 137.5 284.5 134 284 131C283.5 128 284.5 123 287.5 120C290.5 117 297.5 118 302 120C306.5 122 309 126.5 308.5 131Z" fill="white"/>
<path d="M50.5 67.5L42.5 50L45 51.5L55.5 67.5V75.5H49L47.5 79.5H42.5L45 73L50.5 70V67.5Z" fill="#37098F"/>
<path d="M171.5 56.5L173.5 49.5L170.5 52.5L160 70L161.5 75L163.5 76.5L168 75L169 79L174.5 82.5L176 79L171.5 72L166 70V67.5L171.5 56.5Z" fill="#37098F"/>
</svg>
